<?xml version="1.0" encoding="UTF-8" standalone="no"?><!DOCTYPE svg PUBLIC "-//W3C//DTD SVG 1.1//EN" "http://www.w3.org/Graphics/SVG/1.1/DTD/svg11.dtd"><svg width="100%" height="100%" viewBox="0 0 141 143" version="1.1" xmlns="http://www.w3.org/2000/svg" xmlns:xlink="http://www.w3.org/1999/xlink" xml:space="preserve" xmlns:serif="http://www.serif.com/" style="fill-rule:evenodd;clip-rule:evenodd;"><rect id="Plan-de-travail1" serif:id="Plan de travail1" x="0" y="0" width="140.483" height="142.313" style="fill:none;"/><g><path d="M63.212,71.572c0,-1.72 -0.215,-3.279 -0.643,-4.679c-0.432,-1.4 -1.03,-2.602 -1.792,-3.605c-0.765,-1.003 -1.68,-1.783 -2.747,-2.34c-1.065,-0.557 -2.235,-0.835 -3.508,-0.835c-1.306,0 -2.492,0.278 -3.557,0.835c-1.068,0.557 -1.981,1.337 -2.746,2.34c-0.763,1.003 -1.36,2.205 -1.791,3.605c-0.428,1.4 -0.643,2.959 -0.643,4.679c0,1.718 0.215,3.279 0.643,4.678c0.431,1.402 1.028,2.602 1.791,3.607c0.765,1.003 1.678,1.773 2.746,2.315c1.065,0.54 2.251,0.811 3.557,0.811c1.273,0 2.443,-0.271 3.508,-0.811c1.067,-0.542 1.982,-1.312 2.747,-2.315c0.762,-1.005 1.36,-2.205 1.792,-3.607c0.428,-1.399 0.643,-2.96 0.643,-4.678m3.293,0c0,2.1 -0.301,4.033 -0.907,5.802c-0.604,1.765 -1.44,3.293 -2.505,4.582c-1.068,1.29 -2.333,2.293 -3.796,3.008c-1.465,0.716 -3.057,1.074 -4.775,1.074c-1.719,0 -3.31,-0.358 -4.775,-1.074c-1.466,-0.715 -2.729,-1.718 -3.796,-3.008c-1.068,-1.289 -1.901,-2.817 -2.507,-4.582c-0.604,-1.769 -0.907,-3.702 -0.907,-5.802c0,-2.101 0.303,-4.036 0.907,-5.802c0.606,-1.765 1.439,-3.293 2.507,-4.582c1.067,-1.29 2.33,-2.301 3.796,-3.033c1.465,-0.731 3.056,-1.099 4.775,-1.099c1.718,0 3.31,0.368 4.775,1.099c1.463,0.732 2.728,1.743 3.796,3.033c1.065,1.289 1.901,2.817 2.505,4.582c0.606,1.766 0.907,3.701 0.907,5.802" style="fill:#fff;fill-rule:nonzero;"/><path d="M109.933,71.155c0,-21.905 -17.785,-39.69 -39.691,-39.69c-21.906,0 -39.69,17.785 -39.69,39.69c0,21.906 17.784,39.691 39.69,39.691c21.906,0 39.691,-17.785 39.691,-39.691Z" style="fill:none;stroke:#fff;stroke-width:2.11px;"/><path d="M88.896,112.121c15.543,-7.104 26.373,-22.788 26.373,-40.966c0,-24.826 -20.2,-45.025 -45.028,-45.025c-24.828,0 -45.027,20.199 -45.027,45.025c0,18.393 11.091,34.236 26.931,41.219m0,0c5.543,2.442 11.662,3.809 18.096,3.809c6.654,0 12.967,-1.461 18.655,-4.062" style="fill:none;fill-rule:nonzero;stroke:#fff;stroke-width:2.56px;"/><path d="M70.928,69.051l-0.597,1.354l2.99,0l0,0.641c0,0.663 0.038,1.313 0.12,1.951l-3.83,0l-0.597,1.356l4.663,0c0.348,1.49 0.899,2.917 1.657,4.287c0.758,1.368 1.693,2.57 2.81,3.609c1.118,1.036 2.377,1.859 3.788,2.47c1.407,0.611 2.936,0.918 4.583,0.918c1.09,0 2.2,-0.14 3.331,-0.421c1.13,-0.277 2.197,-0.697 3.209,-1.254c1.01,-0.558 1.927,-1.249 2.75,-2.073c0.825,-0.824 1.475,-1.768 1.955,-2.832l-1.755,-0.836c-0.478,0.957 -1.077,1.787 -1.794,2.49c-0.717,0.707 -1.489,1.285 -2.313,1.737c-0.824,0.451 -1.686,0.782 -2.592,0.994c-0.903,0.214 -1.78,0.319 -2.629,0.319c-1.329,0 -2.592,-0.243 -3.789,-0.737c-1.196,-0.491 -2.272,-1.155 -3.229,-1.992c-0.957,-0.838 -1.774,-1.827 -2.452,-2.972c-0.676,-1.14 -1.176,-2.377 -1.494,-3.707l11.999,0l0.637,-1.356l-12.876,0c-0.079,-0.584 -0.12,-1.196 -0.12,-1.833l0,-0.759l13.874,0l0.599,-1.354l-14.314,0c0.185,-1.301 0.571,-2.572 1.158,-3.807c0.583,-1.238 1.347,-2.332 2.292,-3.289c0.943,-0.957 2.046,-1.721 3.308,-2.293c1.263,-0.571 2.692,-0.857 4.286,-0.857c0.824,0 1.661,0.094 2.512,0.278c0.851,0.188 1.668,0.485 2.451,0.898c0.785,0.411 1.515,0.951 2.194,1.615c0.678,0.665 1.269,1.489 1.773,2.47l1.676,-0.956c-0.878,-1.806 -2.209,-3.288 -3.987,-4.445c-1.782,-1.154 -3.936,-1.735 -6.461,-1.735c-1.913,0 -3.64,0.341 -5.18,1.019c-1.543,0.676 -2.878,1.582 -4.008,2.708c-1.13,1.13 -2.041,2.428 -2.731,3.888c-0.691,1.462 -1.143,2.965 -1.354,4.506l-2.513,0Z" style="fill:#fff;fill-rule:nonzero;"/></g></svg>