<?xml version="1.0" encoding="UTF-8" standalone="no"?><!DOCTYPE svg PUBLIC "-//W3C//DTD SVG 1.1//EN" "http://www.w3.org/Graphics/SVG/1.1/DTD/svg11.dtd"><svg width="100%" height="100%" viewBox="0 0 141 143" version="1.1" xmlns="http://www.w3.org/2000/svg" xmlns:xlink="http://www.w3.org/1999/xlink" xml:space="preserve" xmlns:serif="http://www.serif.com/" style="fill-rule:evenodd;clip-rule:evenodd;"><rect id="Plan-de-travail1" serif:id="Plan de travail1" x="0" y="0" width="140.483" height="142.313" style="fill:none;"/><g><path d="M110.367,70.894c0,-22.111 -17.951,-40.063 -40.063,-40.063c-22.111,0 -40.063,17.952 -40.063,40.063c0,22.112 17.952,40.063 40.063,40.063c22.112,0 40.063,-17.951 40.063,-40.063Z" style="fill:none;stroke:#fff;stroke-width:2.08px;"/><path d="M89.187,112.361c15.732,-7.193 26.696,-23.068 26.696,-41.467c0,-25.132 -20.447,-45.578 -45.579,-45.578c-25.132,0 -45.579,20.446 -45.579,45.578c0,18.617 11.227,34.654 27.26,41.722" style="fill:none;fill-rule:nonzero;stroke:#fff;stroke-width:2.6px;"/><path d="M51.985,112.616c5.61,2.474 11.805,3.857 18.319,3.857c6.734,0 13.125,-1.48 18.883,-4.112" style="fill:none;fill-rule:nonzero;stroke:#fff;stroke-width:2.6px;"/><path d="M51.604,67.624l0,-10.302c0,-4.292 -5.151,-4.101 -5.151,0l0,15.739l10.302,18.028l0,4.865" style="fill:none;fill-rule:nonzero;stroke:#fff;stroke-width:2.1px;stroke-linecap:round;"/><path d="M55.324,79.93c0,0 -2.289,-3.721 -3.72,-5.438c-1.431,-1.717 1.145,-6.009 4.293,-2.575c0,0 6.295,8.013 8.585,10.588c2.289,2.576 1.717,13.164 1.717,13.164" style="fill:none;fill-rule:nonzero;stroke:#fff;stroke-width:2.1px;stroke-linecap:round;"/><path d="M88.614,67.624l0,-10.302c0,-4.387 5.151,-4.387 5.151,0l0,15.739l-10.302,18.028l0,4.865" style="fill:none;fill-rule:nonzero;stroke:#fff;stroke-width:2.1px;stroke-linecap:round;"/><path d="M84.894,79.93c0,0 2.29,-3.721 3.72,-5.438c1.431,-1.717 -1.144,-6.009 -4.292,-2.575c0,0 -6.296,8.013 -8.585,10.588c-2.289,2.576 -1.717,13.164 -1.717,13.164" style="fill:none;fill-rule:nonzero;stroke:#fff;stroke-width:2.1px;stroke-linecap:round;"/><path d="M82.224,57.322c0,-6.633 -5.386,-12.019 -12.019,-12.019c-6.634,0 -12.019,5.386 -12.019,12.019c0,6.633 5.385,12.019 12.019,12.019c6.633,0 12.019,-5.386 12.019,-12.019Z" style="fill:none;stroke:#fff;stroke-width:2.1px;stroke-linecap:round;"/><path d="M75.07,59.468c0,2.44 -1.997,4.436 -4.436,4.436c-2.439,0 -4.435,-1.996 -4.435,-4.436l0,-4.864c0,-2.44 1.996,-4.436 4.435,-4.436c2.439,0 4.436,1.996 4.436,4.436" style="fill:none;fill-rule:nonzero;stroke:#fff;stroke-width:2.1px;stroke-linecap:round;"/><path d="M63.48,55.319l6.582,0" style="fill:none;fill-rule:nonzero;stroke:#fff;stroke-width:2.1px;stroke-linecap:round;"/><path d="M63.48,58.753l6.582,0" style="fill:none;fill-rule:nonzero;stroke:#fff;stroke-width:2.1px;stroke-linecap:round;"/></g></svg>