<?xml version="1.0" encoding="UTF-8" standalone="no"?><!DOCTYPE svg PUBLIC "-//W3C//DTD SVG 1.1//EN" "http://www.w3.org/Graphics/SVG/1.1/DTD/svg11.dtd"><svg width="100%" height="100%" viewBox="0 0 141 143" version="1.1" xmlns="http://www.w3.org/2000/svg" xmlns:xlink="http://www.w3.org/1999/xlink" xml:space="preserve" xmlns:serif="http://www.serif.com/" style="fill-rule:evenodd;clip-rule:evenodd;"><rect id="Plan-de-travail1" serif:id="Plan de travail1" x="0" y="0" width="140.483" height="142.313" style="fill:none;"/><rect x="61.228" y="58.214" width="19" height="27.417" style="fill:#fff;"/><rect x="42.484" y="58.021" width="18.644" height="27.7" style="fill:#184795;"/><rect x="79.773" y="58.021" width="18.644" height="27.7" style="fill:#ec1f27;"/><path d="M89.062,112.756c15.588,-7.128 26.452,-22.858 26.452,-41.089c0,-24.902 -20.26,-45.161 -45.162,-45.161c-24.902,0 -45.162,20.259 -45.162,45.161c0,18.448 11.124,34.338 27.01,41.342" style="fill:none;fill-rule:nonzero;stroke:#fff;stroke-width:2.6px;"/><path d="M52.2,113.008c5.559,2.451 11.697,3.822 18.152,3.822c6.672,0 13.005,-1.466 18.71,-4.075" style="fill:none;fill-rule:nonzero;stroke:#fff;stroke-width:2.6px;"/><path d="M110.147,71.668c0,-21.909 -17.787,-39.697 -39.697,-39.697c-21.909,0 -39.696,17.788 -39.696,39.697c0,21.909 17.787,39.696 39.696,39.696c21.91,0 39.697,-17.787 39.697,-39.696Z" style="fill:none;stroke:#fff;stroke-width:2.08px;"/></svg>