<?xml version="1.0" encoding="UTF-8" standalone="no"?><!DOCTYPE svg PUBLIC "-//W3C//DTD SVG 1.1//EN" "http://www.w3.org/Graphics/SVG/1.1/DTD/svg11.dtd"><svg width="100%" height="100%" viewBox="0 0 24 27" version="1.1" xmlns="http://www.w3.org/2000/svg" xmlns:xlink="http://www.w3.org/1999/xlink" xml:space="preserve" xmlns:serif="http://www.serif.com/" style="fill-rule:evenodd;clip-rule:evenodd;stroke-linejoin:round;stroke-miterlimit:2;"><rect id="Plan-de-travail1" serif:id="Plan de travail1" x="0" y="0" width="23.169" height="26.743" style="fill:none;"/><path id="Mail-Icon" serif:id="Mail Icon" d="M17.837,19.178l-12.505,0c-0.493,0 -0.893,-0.411 -0.893,-0.917l0,-9.778c0,-0.507 0.4,-0.917 0.893,-0.917l12.505,0c0.493,0 0.893,0.41 0.893,0.917l0,9.778c0,0.506 -0.4,0.917 -0.893,0.917Zm-0.893,-1.834l0,-7.074l-4.924,5.061c-0.121,0.124 -0.28,0.183 -0.439,0.18c-0.158,0.003 -0.317,-0.056 -0.438,-0.18l-4.918,-5.055l0,7.068l10.719,0Zm-0.857,-7.945l-9.011,0l4.505,4.63l4.506,-4.63Z" style="fill:#6e7887;"/></svg>