<?xml version="1.0" encoding="UTF-8" standalone="no"?><!DOCTYPE svg PUBLIC "-//W3C//DTD SVG 1.1//EN" "http://www.w3.org/Graphics/SVG/1.1/DTD/svg11.dtd"><svg width="100%" height="100%" viewBox="0 0 141 143" version="1.1" xmlns="http://www.w3.org/2000/svg" xmlns:xlink="http://www.w3.org/1999/xlink" xml:space="preserve" xmlns:serif="http://www.serif.com/" style="fill-rule:evenodd;clip-rule:evenodd;"><rect id="Plan-de-travail1" serif:id="Plan de travail1" x="0" y="0" width="140.483" height="142.313" style="fill:none;"/><g><g id="Calque-1" serif:id="Calque 1"><path d="M94.667,99.429l-3.656,-18.422c-0.297,-1.547 -1.263,-2.325 -2.719,-2.942l-7.88,-2.243m-36.966,20.352l5.928,-14.325c0.662,-1.9 2.303,-3.498 4.391,-4.026l6.278,-2.008m0.965,-1.363l-0.118,11.358m-5.868,19.087c0.068,-7.789 0.451,-6.738 0.742,-14.517l1.795,-2.106l25.073,0l1.77,2.115l0.438,14.922m-4.78,-11.411l-3.891,0m-12.006,0l-3.891,0m19.171,-19.448l-0.116,11.358m-19.18,-26.02l20.776,0m-7.075,-5.441l1.743,-9.573c-0.443,-2.421 -9.592,-2.421 -10.034,0l1.742,9.573m-3.26,-8.315c-2.742,2.014 -4.74,5.202 -5.049,8.818c-0.04,0.867 -0.788,0.343 -0.964,2.071c-0.084,0.828 -0.116,1.624 -0.09,2.437c0.019,0.178 0.066,0.32 0.138,0.43l2.073,0c0.189,2.823 0.661,5.846 1.431,7.384c1.142,2.286 3.879,4.481 6.956,5.232c1.364,0.214 2,0.214 3.376,0c3.112,-0.751 5.959,-2.946 7.216,-5.232c0.843,-1.538 1.466,-4.561 1.797,-7.384l2.149,0c0.074,-0.11 0.12,-0.252 0.139,-0.43c0.026,-0.813 -0.004,-1.609 -0.09,-2.437c-0.176,-1.728 -0.925,-1.204 -0.964,-2.071c-0.309,-3.616 -2.307,-6.804 -5.048,-8.818m-15.409,29.65c5.675,2.935 11.35,2.814 17.024,0" style="fill:none;fill-rule:nonzero;stroke:#fff;stroke-width:2.1px;"/><path d="M110.639,71.675c0,-22.234 -18.051,-40.285 -40.286,-40.285c-22.234,0 -40.285,18.051 -40.285,40.285c0,22.235 18.051,40.286 40.285,40.286c22.235,0 40.286,-18.051 40.286,-40.286Z" style="fill:none;stroke:#fff;stroke-width:2.08px;"/><path d="M89.341,113.373c15.82,-7.233 26.845,-23.197 26.845,-41.698c0,-25.272 -20.561,-45.832 -45.832,-45.832c-25.272,0 -45.833,20.56 -45.833,45.832c0,18.721 11.289,34.847 27.412,41.955" style="fill:none;fill-rule:nonzero;stroke:#fff;stroke-width:2.6px;"/><path d="M51.933,113.629c5.641,2.488 11.87,3.879 18.421,3.879c6.771,0 13.197,-1.488 18.987,-4.135" style="fill:none;fill-rule:nonzero;stroke:#fff;stroke-width:2.6px;"/></g></g></svg>