<?xml version="1.0" encoding="UTF-8" standalone="no"?><!DOCTYPE svg PUBLIC "-//W3C//DTD SVG 1.1//EN" "http://www.w3.org/Graphics/SVG/1.1/DTD/svg11.dtd"><svg width="100%" height="100%" viewBox="0 0 24 27" version="1.1" xmlns="http://www.w3.org/2000/svg" xmlns:xlink="http://www.w3.org/1999/xlink" xml:space="preserve" xmlns:serif="http://www.serif.com/" style="fill-rule:evenodd;clip-rule:evenodd;stroke-linejoin:round;stroke-miterlimit:2;"><rect id="Plan-de-travail1" serif:id="Plan de travail1" x="0" y="0" width="23.169" height="26.743" style="fill:none;"/><path d="M15.534,5.277l-7.021,0c-0.672,0 -1.214,0.56 -1.214,1.25l0,14.658c0,0.688 0.542,1.248 1.214,1.248l7.021,0c0.671,0 1.215,-0.56 1.215,-1.248l0,-14.658c0,-0.69 -0.544,-1.25 -1.215,-1.25Zm-5.243,0.759l3.467,0c0.087,0 0.158,0.134 0.158,0.301c0,0.166 -0.071,0.301 -0.158,0.301l-3.467,0c-0.088,0 -0.158,-0.135 -0.158,-0.301c0,-0.167 0.07,-0.301 0.158,-0.301Zm1.733,15.164c-0.427,0 -0.775,-0.358 -0.775,-0.798c0,-0.44 0.348,-0.797 0.775,-0.797c0.427,0 0.775,0.357 0.775,0.797c0,0.44 -0.348,0.798 -0.775,0.798Zm3.815,-2.732l-7.63,0l0,-11.082l7.63,0l0,11.082Z" style="fill:#6e7887;fill-rule:nonzero;"/></svg>