<?xml version="1.0" encoding="UTF-8" standalone="no"?><!DOCTYPE svg PUBLIC "-//W3C//DTD SVG 1.1//EN" "http://www.w3.org/Graphics/SVG/1.1/DTD/svg11.dtd"><svg width="100%" height="100%" viewBox="0 0 242 242" version="1.1" xmlns="http://www.w3.org/2000/svg" xmlns:xlink="http://www.w3.org/1999/xlink" xml:space="preserve" xmlns:serif="http://www.serif.com/" style="fill-rule:evenodd;clip-rule:evenodd;stroke-linecap:round;stroke-linejoin:round;stroke-miterlimit:1.5;"><rect id="popup" x="-334" y="-616" width="1351.33" height="2191" style="fill:none;"/><g><g><path d="M213.36,191.487l-187.16,-0c-0.453,-0 -0.82,0.367 -0.82,0.82l-0,14.76c-0,0.452 0.367,0.82 0.82,0.82l187.16,-0c0.452,-0 0.82,-0.368 0.82,-0.82l-0,-14.76c-0,-0.453 -0.368,-0.82 -0.82,-0.82Z" style="fill:none;stroke:#000;stroke-width:6px;"/><path d="M204.933,191.487c0.542,-1.119 0.847,-2.375 0.847,-3.7l-0,-162.6c-0,-4.692 -3.809,-8.5 -8.5,-8.5l-153,-0c-4.692,-0 -8.5,3.808 -8.5,8.5l-0,162.6c-0,1.325 0.304,2.581 0.846,3.7" style="fill:none;stroke:#000;stroke-width:6px;"/><path d="M190.58,191.487l-0,-152.2c-0,-3.864 -3.137,-7 -7,-7l-126,-0c-3.864,-0 -7,3.136 -7,7l-0,152.2" style="fill:none;stroke:#000;stroke-width:6px;"/><path d="M63.659,191.487l29.535,-11.915c1.238,0.552 2.243,-2.005 2.243,-3.243l-0,-121.514c-0,-1.238 -1.005,-2.691 -2.243,-3.243l-40.371,-18c-1.238,-0.552 -2.243,0.005 -2.243,1.243l-0,154.086c-0,0.462 0.14,1.472 0.38,2.586" style="fill:none;stroke:#000;stroke-width:6px;"/><path d="M84.329,61.949c0,-0.429 -0.437,-0.971 -0.976,-1.212l-17.578,-7.837c-0.539,-0.24 -0.977,-0.088 -0.977,0.34l0,53.31c0,0.429 0.438,2.257 0.977,2.497l17.578,-0.025c0.539,0.241 0.976,-0.604 0.976,-1.032l0,-46.041Z" style="fill:none;stroke:#000;stroke-width:6px;"/><path d="M84.329,167.457c0,0.429 -0.437,0.972 -0.976,1.212l-17.578,7.837c-0.539,0.241 -0.977,0.088 -0.977,-0.34l0,-53.31c0,-0.429 0.438,-2.256 0.977,-2.497l17.578,0.025c0.539,-0.24 0.976,0.604 0.976,1.032l0,46.041Z" style="fill:none;stroke:#000;stroke-width:6px;"/><path d="M178.357,191.487l-29.534,-11.915c-0.89,0.397 -1.66,-0.812 -2.022,-1.984c-0.142,-0.458 -0.221,-0.91 -0.221,-1.259l-0,-121.514c-0,-1.238 1.005,-2.691 2.243,-3.243l40.371,-18c1.238,-0.552 2.243,0.005 2.243,1.243l-0,154.086c-0,0.462 -0.14,1.472 -0.38,2.586" style="fill:none;stroke:#000;stroke-width:6px;"/><path d="M157.687,61.949c0,-0.429 0.438,-0.971 0.977,-1.212l17.578,-7.837c0.539,-0.24 0.976,-0.088 0.976,0.34l0,53.31c0,0.429 -0.437,2.257 -0.976,2.497l-17.578,-0.025c-0.539,0.241 -0.977,-0.604 -0.977,-1.032l0,-46.041Z" style="fill:none;stroke:#000;stroke-width:6px;"/><path d="M157.687,167.457c0,0.429 0.438,0.972 0.977,1.212l17.578,7.837c0.539,0.241 0.976,0.088 0.976,-0.34l0,-53.31c0,-0.429 -0.437,-2.256 -0.976,-2.497l-17.578,0.025c-0.539,-0.24 -0.977,0.604 -0.977,1.032l0,46.041Z" style="fill:none;stroke:#000;stroke-width:6px;"/></g></g></svg>