<?xml version="1.0" encoding="UTF-8" standalone="no"?><!DOCTYPE svg PUBLIC "-//W3C//DTD SVG 1.1//EN" "http://www.w3.org/Graphics/SVG/1.1/DTD/svg11.dtd"><svg width="100%" height="100%" viewBox="0 0 242 242" version="1.1" xmlns="http://www.w3.org/2000/svg" xmlns:xlink="http://www.w3.org/1999/xlink" xml:space="preserve" xmlns:serif="http://www.serif.com/" style="fill-rule:evenodd;clip-rule:evenodd;stroke-linecap:round;stroke-linejoin:round;stroke-miterlimit:1.5;"><rect id="popup" x="-332" y="-1034" width="1351.33" height="2191" style="fill:none;"/><g><path d="M23.089,216.22l-6,-0l0,19l206,-0l0,-19l-4.666,-0" style="fill:none;stroke:#000;stroke-width:6px;"/><path d="M218.423,216.22l-18.667,-0" style="fill:none;stroke:#000;stroke-width:6px;"/><path d="M199.756,216.22l-158,-0" style="fill:none;stroke:#000;stroke-width:6px;"/><path d="M41.756,216.22l-18.667,-0" style="fill:none;stroke:#000;stroke-width:6px;"/><path d="M23.089,83.696l0,132.524" style="fill:none;stroke:#000;stroke-width:6px;"/><path d="M41.756,216.22l-0,-132.524" style="fill:none;stroke:#000;stroke-width:6px;"/><path d="M199.756,83.696l-0,132.524" style="fill:none;stroke:#000;stroke-width:6px;"/><path d="M218.423,216.22l-0,-132.524" style="fill:none;stroke:#000;stroke-width:6px;"/><path d="M105.37,159.901c0,-0.892 -0.724,-1.616 -1.617,-1.616l-59.766,-0c-0.892,-0 -1.617,0.724 -1.617,1.616l0,29.1c0,0.893 0.725,1.617 1.617,1.617l59.766,0c0.893,0 1.617,-0.724 1.617,-1.617l0,-29.1Z" style="fill:none;stroke:#000;stroke-width:6px;"/><path d="M199.87,159.901c0,-0.892 -0.724,-1.616 -1.617,-1.616l-59.766,-0c-0.892,-0 -1.617,0.724 -1.617,1.616l0,29.1c0,0.893 0.725,1.617 1.617,1.617l59.766,0c0.893,0 1.617,-0.724 1.617,-1.617l0,-29.1Z" style="fill:none;stroke:#000;stroke-width:6px;"/><path d="M78.089,192.22l0,22.333" style="fill:none;stroke:#000;stroke-width:6px;"/><path d="M98.756,214.553l-0,-22.333" style="fill:none;stroke:#000;stroke-width:6px;"/><path d="M19.327,83.696l203.715,0l-25.143,-54l-154,0l-24.572,54Z" style="fill:none;stroke:#000;stroke-width:6px;"/><path d="M62.184,31.125l23.429,52" style="fill:none;stroke:#000;stroke-width:6px;"/><path d="M95.042,31.125l23.428,52" style="fill:none;stroke:#000;stroke-width:6px;"/><path d="M127.899,31.125l23.428,52" style="fill:none;stroke:#000;stroke-width:6px;"/><path d="M162.47,31.125l23.429,52" style="fill:none;stroke:#000;stroke-width:6px;"/><path d="M183.899,31.125l-23.429,52" style="fill:none;stroke:#000;stroke-width:6px;"/><path d="M151.042,31.125l-23.429,52" style="fill:none;stroke:#000;stroke-width:6px;"/><path d="M118.184,31.125l-23.428,52" style="fill:none;stroke:#000;stroke-width:6px;"/><path d="M83.613,31.125l-23.429,52" style="fill:none;stroke:#000;stroke-width:6px;"/><path d="M68.913,83.696l-26.65,25.848" style="fill:none;stroke:#000;stroke-width:6px;"/><path d="M42.389,135.133l50.718,-51.437" style="fill:none;stroke:#000;stroke-width:6px;"/><path d="M170.028,83.696l27.751,26.942" style="fill:none;stroke:#000;stroke-width:6px;"/><path d="M197.427,136.04l-51.594,-52.344" style="fill:none;stroke:#000;stroke-width:6px;"/><rect x="42.356" y="173.068" width="44.2" height="1.4" style="fill:none;stroke:#000;stroke-width:6px;"/><circle cx="95.206" cy="180.918" r="1.25" style="fill:none;stroke:#000;stroke-width:6px;"/><path d="M200.356,216.22l18.667,-0" style="fill:none;stroke:#000;stroke-width:6px;"/><path d="M164.023,192.22l-0,22.333" style="fill:none;stroke:#000;stroke-width:6px;"/><path d="M143.356,214.553l-0,-22.333" style="fill:none;stroke:#000;stroke-width:6px;"/><rect x="155.556" y="173.068" width="44.2" height="1.4" style="fill:none;stroke:#000;stroke-width:6px;"/><circle cx="146.906" cy="180.918" r="1.25" style="fill:none;stroke:#000;stroke-width:6px;"/></g></svg>