<?xml version="1.0" encoding="UTF-8" standalone="no"?><!DOCTYPE svg PUBLIC "-//W3C//DTD SVG 1.1//EN" "http://www.w3.org/Graphics/SVG/1.1/DTD/svg11.dtd"><svg width="100%" height="100%" viewBox="0 0 242 242" version="1.1" xmlns="http://www.w3.org/2000/svg" xmlns:xlink="http://www.w3.org/1999/xlink" xml:space="preserve" xmlns:serif="http://www.serif.com/" style="fill-rule:evenodd;clip-rule:evenodd;stroke-linecap:round;stroke-linejoin:round;stroke-miterlimit:1.5;"><rect id="popup" x="-554" y="-1470" width="1351.33" height="2191" style="fill:none;"/><g><path d="M145.033,69.605l-112.457,-0" style="fill:none;stroke:#000;stroke-width:6px;"/><path d="M32.576,186.176l176,0" style="fill:none;stroke:#000;stroke-width:6px;"/><path d="M145.033,56.176l-112.457,0" style="fill:none;stroke:#000;stroke-width:6px;"/><path d="M33.02,198.748l175.778,-0" style="fill:none;stroke:#000;stroke-width:6px;"/><path d="M31.153,47.241c0,-1.015 -0.824,-1.84 -1.84,-1.84l-14.72,0c-1.015,0 -1.84,0.825 -1.84,1.84l0,150.72c0,1.016 0.825,1.84 1.84,1.84l14.72,0c1.016,0 1.84,-0.824 1.84,-1.84l0,-150.72Z" style="fill:none;stroke:#000;stroke-width:6px;"/><path d="M209.953,71.832l0,126.129c0,1.016 0.825,1.84 1.84,1.84l14.72,0c1.016,0 1.84,-0.824 1.84,-1.84l0,-150.72c0,-1.015 -0.824,-1.84 -1.84,-1.84l-14.72,0c-1.015,0 -1.84,0.825 -1.84,1.84l0,4.935" style="fill:none;stroke:#000;stroke-width:6px;"/><path d="M146.764,71.89l0.269,-20.571l64,-0l0,20.571l-28.731,0c-0.412,9.453 -8.216,17 -17.769,17c-9.553,0 -17.357,-7.547 -17.769,-17Z" style="fill:none;stroke:#000;stroke-width:6px;"/><path d="M52.462,71.033l-0,112.857" style="fill:none;stroke:#000;stroke-width:6px;"/><path d="M71.89,71.033l0,112.857" style="fill:none;stroke:#000;stroke-width:6px;"/><path d="M91.604,71.033l0,112.857" style="fill:none;stroke:#000;stroke-width:6px;"/><path d="M110.747,71.033l0,112.857" style="fill:none;stroke:#000;stroke-width:6px;"/><path d="M130.176,71.033l-0,112.857" style="fill:none;stroke:#000;stroke-width:6px;"/><path d="M149.89,81.605l0,102.285" style="fill:none;stroke:#000;stroke-width:6px;"/><path d="M169.604,89.319l0,94.571" style="fill:none;stroke:#000;stroke-width:6px;"/><path d="M189.89,74.462l0,109.428" style="fill:none;stroke:#000;stroke-width:6px;"/><circle cx="164.565" cy="71.913" r="2.917" style="fill:none;stroke:#000;stroke-width:6px;"/></g></svg>