<?xml version="1.0" encoding="UTF-8" standalone="no"?><!DOCTYPE svg PUBLIC "-//W3C//DTD SVG 1.1//EN" "http://www.w3.org/Graphics/SVG/1.1/DTD/svg11.dtd"><svg width="100%" height="100%" viewBox="0 0 242 242" version="1.1" xmlns="http://www.w3.org/2000/svg" xmlns:xlink="http://www.w3.org/1999/xlink" xml:space="preserve" xmlns:serif="http://www.serif.com/" style="fill-rule:evenodd;clip-rule:evenodd;stroke-linecap:round;stroke-linejoin:round;stroke-miterlimit:1.5;"><rect id="popup" x="-776" y="-622" width="1351.33" height="2191" style="fill:none;"/><g><circle cx="92.156" cy="130.553" r="6" style="fill:none;stroke:#000;stroke-width:6px;"/><path d="M68.446,217.487l-18.666,-0" style="fill:none;stroke:#000;stroke-width:6px;"/><path d="M49.78,217.487l-24.914,-0c-0.452,-0 -0.82,0.367 -0.82,0.82l0,14.76c0,0.452 0.368,0.82 0.82,0.82l187.16,-0c0.453,-0 0.82,-0.368 0.82,-0.82l0,-14.76c0,-0.453 -0.367,-0.82 -0.82,-0.82l-20.246,-0" style="fill:none;stroke:#000;stroke-width:6px;"/><path d="M191.78,217.487l-20,-0" style="fill:none;stroke:#000;stroke-width:6px;"/><path d="M171.78,217.487l-103.334,-0" style="fill:none;stroke:#000;stroke-width:6px;"/><path d="M171.78,217.487l-0,-195.543l-103.334,-0l0,195.543" style="fill:none;stroke:#000;stroke-width:6px;"/><path d="M192.203,216.401l0,-204.7c0,-3.946 -3.203,-7.15 -7.15,-7.15l-128.7,0c-3.946,0 -7.15,3.204 -7.15,7.15l0,204.7" style="fill:none;stroke:#000;stroke-width:6px;"/></g></svg>