<?xml version="1.0" encoding="UTF-8" standalone="no"?><!DOCTYPE svg PUBLIC "-//W3C//DTD SVG 1.1//EN" "http://www.w3.org/Graphics/SVG/1.1/DTD/svg11.dtd"><svg width="100%" height="100%" viewBox="0 0 512 512" version="1.1" xmlns="http://www.w3.org/2000/svg" xmlns:xlink="http://www.w3.org/1999/xlink" xml:space="preserve" xmlns:serif="http://www.serif.com/" style="fill-rule:evenodd;clip-rule:evenodd;stroke-linejoin:round;stroke-miterlimit:2;"><g><path d="M496.137,321.48l-151,-242c-19.332,-30.984 -52.657,-49.48 -89.137,-49.48c-36.48,0 -69.805,18.496 -89.137,49.48l-151,242c-10.379,16.633 -15.863,35.832 -15.863,55.52c0,57.898 47.102,105 105,105l302,0c57.898,0 105,-47.102 105,-105c0,-19.688 -5.484,-38.887 -15.863,-55.52Zm-89.137,130.52l-302,0c-41.355,0 -75,-33.645 -75,-75c0,-14.066 3.914,-27.773 11.316,-39.637l151,-242c13.817,-22.144 37.622,-35.363 63.684,-35.363c26.063,0 49.867,13.219 63.684,35.363l151,242c7.402,11.864 11.316,25.571 11.316,39.637c0,41.355 -33.645,75 -75,75Z" style="fill:#f00;fill-rule:nonzero;"/><path d="M294.234,111.246c-8.3,-13.305 -22.593,-21.246 -38.234,-21.246c-15.641,0 -29.934,7.941 -38.234,21.242l-150.996,242c-4.493,7.195 -6.77,15.192 -6.77,23.758c0,24.813 20.188,45 45,45l302,0c24.813,0 45,-20.188 45,-45c0,-8.566 -2.277,-16.559 -6.766,-23.758l-151,-241.996Zm112.766,280.754l-302,0c-8.27,0 -15,-6.73 -15,-15c0,-2.906 0.727,-5.48 2.219,-7.879l151,-241.996c2.785,-4.461 7.562,-7.125 12.781,-7.125c5.219,0 10,2.664 12.781,7.129l151,241.996c1.492,2.395 2.219,4.969 2.219,7.875c0,8.27 -6.73,15 -15,15Z" style="fill:#f00;fill-rule:nonzero;"/><rect x="241" y="195" width="30" height="106" style="fill:#f00;fill-rule:nonzero;"/><rect x="241" y="331" width="30" height="30" style="fill:#f00;fill-rule:nonzero;"/></g></svg>