<?xml version="1.0" encoding="UTF-8" standalone="no"?><!DOCTYPE svg PUBLIC "-//W3C//DTD SVG 1.1//EN" "http://www.w3.org/Graphics/SVG/1.1/DTD/svg11.dtd"><svg width="100%" height="100%" viewBox="0 0 242 242" version="1.1" xmlns="http://www.w3.org/2000/svg" xmlns:xlink="http://www.w3.org/1999/xlink" xml:space="preserve" xmlns:serif="http://www.serif.com/" style="fill-rule:evenodd;clip-rule:evenodd;stroke-linecap:round;stroke-linejoin:round;stroke-miterlimit:1.5;"><rect id="popup" x="-776" y="-1034" width="1351.33" height="2191" style="fill:none;"/><g><path d="M143.986,194.347l39.526,-0c-0,-0 -0.102,-15.975 -0,-34.816c0.047,-8.734 -9.79,-15.116 -19.662,-15.146c-9.939,-0.03 -19.912,6.352 -19.864,15.146c0.102,18.841 -0,34.816 -0,34.816Z" style="fill:none;stroke:#000;stroke-width:6px;"/><path d="M143.986,125.176l39.526,-0c-0,-0 -9.79,17.286 -19.662,17.296c-9.939,0.01 -19.864,-17.296 -19.864,-17.296Z" style="fill:none;stroke:#000;stroke-width:6px;"/><path d="M11.327,111.696l219.715,0l-19.084,-82l-182.223,0l-18.408,82Z" style="fill:none;stroke:#000;stroke-width:6px;"/><path d="M48.645,31.268l-15,78.333" style="fill:none;stroke:#000;stroke-width:6px;"/><path d="M69.978,31.268l-11,78.333" style="fill:none;stroke:#000;stroke-width:6px;"/><path d="M89.978,31.268l-6.333,78.333" style="fill:none;stroke:#000;stroke-width:6px;"/><path d="M111.645,31.268l-2.667,78.333" style="fill:none;stroke:#000;stroke-width:6px;"/><path d="M193.978,31.268l15,78.333" style="fill:none;stroke:#000;stroke-width:6px;"/><path d="M172.645,31.268l11,78.333" style="fill:none;stroke:#000;stroke-width:6px;"/><path d="M152.645,31.268l6.333,78.333" style="fill:none;stroke:#000;stroke-width:6px;"/><path d="M130.978,31.268l2.667,78.333" style="fill:none;stroke:#000;stroke-width:6px;"/><path d="M36.311,111.696l0,100.572l168,-0l0,-100.572" style="fill:none;stroke:#000;stroke-width:6px;"/><path d="M120.645,111.268l-0,99.333" style="fill:none;stroke:#000;stroke-width:6px;"/><path d="M73.756,195.823l-0,14.445" style="fill:none;stroke:#000;stroke-width:6px;"/><path d="M163.756,195.823l-0,14.445" style="fill:none;stroke:#000;stroke-width:6px;"/><path d="M154.423,174.126l-0,17.112" style="fill:none;stroke:#000;stroke-width:6px;"/><path d="M172.423,174.126l-0,17.112" style="fill:none;stroke:#000;stroke-width:6px;"/><path d="M55.311,194.49l37.778,-0c0,-0 -12.889,-37.111 -14.444,-46c-1.556,-8.889 13.111,-23.334 13.111,-23.334l-35.111,0c-0,0 14.666,14.445 13.111,23.334c-1.556,8.889 -14.445,46 -14.445,46Z" style="fill:none;stroke:#000;stroke-width:6px;"/><path d="M69.198,151.049l10.001,0" style="fill:none;stroke:#000;stroke-width:6px;"/><path d="M65.752,163.012l15.77,0" style="fill:none;stroke:#000;stroke-width:6px;"/></g><path d="M22.837,114.465l-0,111.24c-0,3.411 2.769,6.18 6.18,6.18l183.24,-0c3.411,-0 6.18,-2.769 6.18,-6.18l-0,-111.24" style="fill:none;stroke:#000;stroke-width:6px;"/></svg>