<?xml version="1.0" encoding="UTF-8" standalone="no"?><!DOCTYPE svg PUBLIC "-//W3C//DTD SVG 1.1//EN" "http://www.w3.org/Graphics/SVG/1.1/DTD/svg11.dtd"><svg width="100%" height="100%" viewBox="0 0 130 130" version="1.1" xmlns="http://www.w3.org/2000/svg" xmlns:xlink="http://www.w3.org/1999/xlink" xml:space="preserve" xmlns:serif="http://www.serif.com/" style="fill-rule:evenodd;clip-rule:evenodd;stroke-linecap:round;"><rect id="accueil" x="-1598" y="-2107.48" width="2560" height="4301" style="fill:none;"/><g id="Calque-1" serif:id="Calque 1"></g><g id="Calque-11" serif:id="Calque 1"></g><g id="Calque-12" serif:id="Calque 1"></g><g><path d="M33.555,64.921l0,-14.095c0,-5.873 -7.047,-5.612 -7.047,-0l-0,21.534l14.095,24.667l-0,6.656" style="fill:none;fill-rule:nonzero;stroke:#000;stroke-width:4.2px;"/><path d="M38.645,81.758c0,-0 -3.132,-5.09 -5.09,-7.439c-1.958,-2.349 1.566,-8.222 5.873,-3.524c0,-0 8.614,10.963 11.746,14.487c3.133,3.524 2.349,24.01 2.349,24.01" style="fill:none;fill-rule:nonzero;stroke:#000;stroke-width:4.2px;"/><path d="M84.193,64.921l0,-14.095c0,-6.003 7.048,-6.003 7.048,-0l-0,21.534l-14.095,24.667l-0,6.656" style="fill:none;fill-rule:nonzero;stroke:#000;stroke-width:4.2px;"/><path d="M79.103,81.758c0,-0 3.133,-5.09 5.09,-7.439c1.958,-2.349 -1.566,-8.222 -5.873,-3.524c0,-0 -8.614,10.963 -11.746,14.487c-3.132,3.524 -0.349,24.01 -0.349,24.01" style="fill:none;fill-rule:nonzero;stroke:#000;stroke-width:4.2px;"/><path d="M75.45,50.826c-0,-9.076 -7.369,-16.445 -16.445,-16.445c-9.076,0 -16.445,7.369 -16.445,16.445c0,9.076 7.369,16.444 16.445,16.444c9.076,0 16.445,-7.368 16.445,-16.444Z" style="fill:none;stroke:#000;stroke-width:4.2px;"/><path d="M65.661,53.762c0,3.338 -2.731,6.069 -6.069,6.069c-3.337,0 -6.069,-2.731 -6.069,-6.069l0,-6.656c0,-3.337 2.732,-6.069 6.069,-6.069c3.338,0 6.069,2.732 6.069,6.069" style="fill:none;fill-rule:nonzero;stroke:#000;stroke-width:4.2px;"/><path d="M49.804,48.085l9.005,0" style="fill:none;fill-rule:nonzero;stroke:#000;stroke-width:4.2px;"/><path d="M49.804,52.784l9.005,-0" style="fill:none;fill-rule:nonzero;stroke:#000;stroke-width:4.2px;"/></g><circle cx="60" cy="66.667" r="48" style="fill:none;stroke:#000;stroke-width:4px;stroke-linejoin:round;stroke-miterlimit:1.5;"/></svg>