<?xml version="1.0" encoding="UTF-8" standalone="no"?><!DOCTYPE svg PUBLIC "-//W3C//DTD SVG 1.1//EN" "http://www.w3.org/Graphics/SVG/1.1/DTD/svg11.dtd"><svg width="100%" height="100%" viewBox="0 0 130 130" version="1.1" xmlns="http://www.w3.org/2000/svg" xmlns:xlink="http://www.w3.org/1999/xlink" xml:space="preserve" xmlns:serif="http://www.serif.com/" style="fill-rule:evenodd;clip-rule:evenodd;"><rect id="accueil" x="-892" y="-2107.48" width="2560" height="4301" style="fill:none;"/><g id="Calque-1" serif:id="Calque 1"></g><g id="Calque-11" serif:id="Calque 1"></g><g id="Calque-12" serif:id="Calque 1"></g><path d="M96.582,94.819c-0.715,-2.293 -5.549,-17.784 -8.145,-22.889c-0.809,-1.593 -1.432,-2.637 -3.083,-3.337l-8.935,-2.543m-43.917,29.078l8.721,-22.244c0.751,-2.154 2.612,-3.967 4.98,-4.565l7.118,-2.277m1.095,-1.546l-0.134,12.88m-6.654,27.643c0.077,-8.833 0.512,-13.641 0.842,-22.461l2.035,-2.389l28.43,0l2.008,2.399l0.497,22.92m-5.42,-18.939l-4.413,-0m-13.613,-0l-4.413,-0m21.739,-22.053l-0.132,12.88m-21.748,-29.505l23.559,0m-8.023,-6.17l1.976,-10.855c-0.503,-2.746 -10.876,-2.746 -11.378,0l1.975,10.855m-3.696,-9.428c-3.109,2.283 -5.375,5.898 -5.726,9.999c-0.044,0.983 -0.893,0.389 -1.092,2.348c-0.096,0.938 -0.132,1.841 -0.102,2.763c0.021,0.202 0.074,0.363 0.156,0.488l2.351,0c0.214,3.2 0.749,6.629 1.622,8.373c1.295,2.592 4.399,5.081 7.888,5.932c1.546,0.243 2.268,0.243 3.828,-0c3.529,-0.851 6.757,-3.34 8.182,-5.932c0.957,-1.744 1.663,-5.173 2.039,-8.373l2.436,0c0.084,-0.125 0.136,-0.286 0.157,-0.488c0.03,-0.922 -0.004,-1.825 -0.102,-2.763c-0.2,-1.959 -1.048,-1.365 -1.092,-2.348c-0.351,-4.101 -2.617,-7.716 -5.725,-9.999m-17.472,33.62c6.434,3.328 12.87,3.191 19.303,0" style="fill:none;fill-rule:nonzero;stroke:#000;stroke-width:4.2px;"/><circle cx="64" cy="64.667" r="48" style="fill:none;stroke:#000;stroke-width:4px;stroke-linecap:round;stroke-linejoin:round;stroke-miterlimit:1.5;"/></svg>