<?xml version="1.0" encoding="UTF-8" standalone="no"?>
<!DOCTYPE svg PUBLIC "-//W3C//DTD SVG 1.1//EN" "http://www.w3.org/Graphics/SVG/1.1/DTD/svg11.dtd">
<svg width="100%" height="100%" viewBox="0 0 200 80" version="1.1" xmlns="http://www.w3.org/2000/svg" xmlns:xlink="http://www.w3.org/1999/xlink" xml:space="preserve" xmlns:serif="http://www.serif.com/" style="fill-rule:evenodd;clip-rule:evenodd;stroke-linejoin:round;stroke-miterlimit:2;">
    <g transform="matrix(1,0,0,1,-33,-19)">
        <g id="accueil" transform="matrix(1,0,0,2.68813,0,8.25839)">
            <rect x="0" y="0" width="1280" height="800" style="fill:none;"/>
            <g transform="matrix(1,0,0,0.99256,-10,-12.2762)">
                <g transform="matrix(0.782609,0,0,0.293318,-1263.78,-596.526)">
                    <rect x="1680" y="2096" width="69" height="69" style="fill:rgb(0,180,188);"/>
                </g>
                <g transform="matrix(1.28856,0,0,0.482945,50.1993,37.0602)">
                    <g id="Logo">
                        <g>
                            <path d="M8.193,0L4.893,0L4.893,-11.396L2.031,-11.396L2.031,-13.916L8.193,-14.424L8.193,0Z" style="fill:white;"/>
                            <path d="M20.324,-5.225C20.324,-3.525 19.872,-2.196 18.967,-1.235C18.062,-0.275 16.867,0.205 15.383,0.205C13.885,0.205 12.684,-0.275 11.779,-1.235C10.874,-2.196 10.422,-3.525 10.422,-5.225L10.422,-8.994C10.422,-10.693 10.871,-12.023 11.77,-12.983C12.668,-13.944 13.866,-14.424 15.363,-14.424C16.848,-14.424 18.046,-13.942 18.957,-12.979C19.868,-12.015 20.324,-10.687 20.324,-8.994L20.324,-5.225ZM17.033,-9.219C17.033,-10.085 16.885,-10.745 16.589,-11.201C16.293,-11.657 15.884,-11.885 15.363,-11.885C14.836,-11.885 14.429,-11.657 14.143,-11.201C13.856,-10.745 13.713,-10.085 13.713,-9.219L13.713,-5.02C13.713,-4.134 13.858,-3.465 14.147,-3.013C14.437,-2.56 14.849,-2.334 15.383,-2.334C15.904,-2.334 16.309,-2.56 16.599,-3.013C16.888,-3.465 17.033,-4.134 17.033,-5.02L17.033,-9.219Z" style="fill:white;"/>
                            <path d="M31.906,-5.225C31.906,-3.525 31.454,-2.196 30.549,-1.235C29.644,-0.275 28.449,0.205 26.965,0.205C25.467,0.205 24.266,-0.275 23.361,-1.235C22.456,-2.196 22.004,-3.525 22.004,-5.225L22.004,-8.994C22.004,-10.693 22.453,-12.023 23.352,-12.983C24.25,-13.944 25.448,-14.424 26.945,-14.424C28.43,-14.424 29.628,-13.942 30.539,-12.979C31.451,-12.015 31.906,-10.687 31.906,-8.994L31.906,-5.225ZM28.615,-9.219C28.615,-10.085 28.467,-10.745 28.171,-11.201C27.875,-11.657 27.466,-11.885 26.945,-11.885C26.418,-11.885 26.011,-11.657 25.725,-11.201C25.438,-10.745 25.295,-10.085 25.295,-9.219L25.295,-5.02C25.295,-4.134 25.44,-3.465 25.729,-3.013C26.019,-2.56 26.431,-2.334 26.965,-2.334C27.486,-2.334 27.891,-2.56 28.181,-3.013C28.47,-3.465 28.615,-4.134 28.615,-5.02L28.615,-9.219Z" style="fill:white;"/>
                            <path d="M39.939,0L36.639,0L36.639,-11.396L33.777,-11.396L33.777,-13.916L39.939,-14.424L39.939,0Z" style="fill:white;"/>
                            <path d="M56.947,-5.723L51.742,-5.723L51.742,0L48.441,0L48.441,-14.219L57.943,-14.219L57.943,-11.68L51.742,-11.68L51.742,-8.262L56.947,-8.262L56.947,-5.723Z" style="fill:rgb(61,77,101);"/>
                            <path d="M67.914,-6.084L62.904,-6.084L62.904,-2.539L68.91,-2.539L68.91,0L59.604,0L59.604,-14.219L68.92,-14.219L68.92,-11.68L62.904,-11.68L62.904,-8.623L67.914,-8.623L67.914,-6.084Z" style="fill:rgb(61,77,101);"/>
                            <path d="M82.621,0L79.33,0L74.125,-8.945L74.066,-8.926L74.066,0L70.766,0L70.766,-14.219L74.066,-14.219L79.271,-5.283L79.33,-5.303L79.33,-14.219L82.621,-14.219L82.621,0Z" style="fill:rgb(61,77,101);"/>
                            <path d="M93.197,-6.084L88.188,-6.084L88.188,-2.539L94.193,-2.539L94.193,0L84.887,0L84.887,-14.219L94.203,-14.219L94.203,-11.68L88.188,-11.68L88.188,-8.623L93.197,-8.623L93.197,-6.084ZM93.471,-15.713L93.471,-15.498L90.883,-15.498L89.545,-16.729L88.217,-15.498L85.678,-15.498L85.678,-15.752L88.607,-18.096L90.492,-18.096L93.471,-15.713Z" style="fill:rgb(61,77,101);"/>
                            <path d="M105.941,-11.68L102.182,-11.68L102.182,0L98.881,0L98.881,-11.68L95.189,-11.68L95.189,-14.219L105.941,-14.219L105.941,-11.68Z" style="fill:rgb(61,77,101);"/>
                            <path d="M110.58,-5.449L110.58,0L107.279,0L107.279,-14.219L112.23,-14.219C113.878,-14.219 115.183,-13.838 116.146,-13.076C117.11,-12.314 117.592,-11.273 117.592,-9.951C117.592,-9.215 117.398,-8.584 117.011,-8.057C116.623,-7.529 116.052,-7.1 115.297,-6.768C116.169,-6.52 116.796,-6.108 117.177,-5.532C117.558,-4.956 117.748,-4.238 117.748,-3.379L117.748,-2.48C117.748,-2.109 117.803,-1.686 117.914,-1.211C118.025,-0.736 118.217,-0.397 118.49,-0.195L118.49,0L115.082,0C114.822,-0.202 114.652,-0.557 114.574,-1.064C114.496,-1.572 114.457,-2.051 114.457,-2.5L114.457,-3.359C114.457,-4.036 114.278,-4.554 113.92,-4.912C113.562,-5.27 113.038,-5.449 112.348,-5.449L110.58,-5.449ZM110.58,-7.988L112.25,-7.988C112.914,-7.988 113.422,-8.14 113.773,-8.442C114.125,-8.745 114.301,-9.18 114.301,-9.746C114.301,-10.326 114.12,-10.793 113.759,-11.147C113.397,-11.502 112.888,-11.68 112.23,-11.68L110.58,-11.68L110.58,-7.988Z" style="fill:rgb(61,77,101);"/>
                            <path d="M128.344,-6.084L123.334,-6.084L123.334,-2.539L129.34,-2.539L129.34,0L120.033,0L120.033,-14.219L129.35,-14.219L129.35,-11.68L123.334,-11.68L123.334,-8.623L128.344,-8.623L128.344,-6.084Z" style="fill:rgb(61,77,101);"/>
                            <path d="M138.529,-3.77C138.529,-4.277 138.363,-4.666 138.031,-4.937C137.699,-5.207 137.097,-5.495 136.225,-5.801C134.46,-6.374 133.15,-6.984 132.294,-7.632C131.438,-8.28 131.01,-9.212 131.01,-10.43C131.01,-11.621 131.508,-12.585 132.504,-13.32C133.5,-14.056 134.766,-14.424 136.303,-14.424C137.924,-14.424 139.229,-14.045 140.219,-13.286C141.208,-12.528 141.687,-11.458 141.654,-10.078L141.635,-10.02L138.432,-10.02C138.432,-10.69 138.249,-11.177 137.885,-11.479C137.52,-11.782 136.97,-11.934 136.234,-11.934C135.635,-11.934 135.163,-11.787 134.818,-11.494C134.473,-11.201 134.301,-10.84 134.301,-10.41C134.301,-9.993 134.478,-9.66 134.833,-9.409C135.188,-9.159 135.85,-8.844 136.82,-8.467C138.467,-7.979 139.714,-7.383 140.561,-6.68C141.407,-5.977 141.83,-5.013 141.83,-3.789C141.83,-2.539 141.342,-1.561 140.365,-0.854C139.389,-0.148 138.093,0.205 136.479,0.205C134.87,0.205 133.508,-0.174 132.392,-0.933C131.275,-1.691 130.733,-2.884 130.766,-4.512L130.785,-4.57L133.998,-4.57C133.998,-3.743 134.201,-3.156 134.608,-2.808C135.015,-2.459 135.639,-2.285 136.479,-2.285C137.169,-2.285 137.683,-2.422 138.021,-2.695C138.36,-2.969 138.529,-3.327 138.529,-3.77Z" style="fill:rgb(61,77,101);"/>
                        </g>
                    </g>
                </g>
                <g transform="matrix(0.531542,0,0,0.199219,18.4802,-77.7357)">
                    <g transform="matrix(0.883194,0,0,0.883194,57.2343,604.931)">
                        <path d="M8.652,-1.699L8.711,-1.699L14.004,-14.219L15.43,-14.219L15.43,0L14.258,0L14.258,-11.943L14.199,-11.953L9.102,0L8.262,0L3.047,-12.246L2.988,-12.236L2.988,0L1.816,0L1.816,-14.219L3.379,-14.219L8.652,-1.699Z" style="fill:rgb(61,77,101);"/>
                    </g>
                    <g transform="matrix(0.883194,0,0,0.883194,57.2343,604.931)">
                        <path d="M26.611,-6.885L20.234,-6.885L20.234,-0.986L27.607,-0.986L27.607,0L19.063,0L19.063,-14.219L27.559,-14.219L27.559,-13.223L20.234,-13.223L20.234,-7.881L26.611,-7.881L26.611,-6.885Z" style="fill:rgb(61,77,101);"/>
                    </g>
                    <g transform="matrix(0.883194,0,0,0.883194,57.2343,604.931)">
                        <path d="M40.566,0L39.395,0L31.318,-12.168L31.26,-12.158L31.26,0L30.088,0L30.088,-14.219L31.26,-14.219L39.336,-2.08L39.395,-2.09L39.395,-14.219L40.566,-14.219L40.566,0Z" style="fill:rgb(61,77,101);"/>
                    </g>
                    <g transform="matrix(0.883194,0,0,0.883194,57.2343,604.931)">
                        <path d="M54.189,-14.219L54.189,-4.775C54.189,-3.213 53.711,-1.992 52.754,-1.113C51.797,-0.234 50.566,0.205 49.063,0.205C47.578,0.205 46.366,-0.236 45.425,-1.118C44.484,-2 44.014,-3.219 44.014,-4.775L44.014,-14.219L45.186,-14.219L45.186,-4.775C45.186,-3.551 45.549,-2.58 46.274,-1.86C47,-1.141 47.93,-0.781 49.063,-0.781C50.221,-0.781 51.172,-1.139 51.914,-1.855C52.656,-2.572 53.027,-3.545 53.027,-4.775L53.027,-14.219L54.189,-14.219Z" style="fill:rgb(61,77,101);"/>
                    </g>
                    <g transform="matrix(0.883194,0,0,0.883194,57.2343,604.931)">
                        <rect x="57.92" y="-14.219" width="1.172" height="14.219" style="fill:rgb(61,77,101);"/>
                    </g>
                    <g transform="matrix(0.883194,0,0,0.883194,57.2343,604.931)">
                        <path d="M71.045,-3.457C71.045,-4.186 70.755,-4.788 70.176,-5.264C69.596,-5.739 68.613,-6.185 67.227,-6.602C65.71,-7.018 64.556,-7.537 63.765,-8.159C62.974,-8.781 62.578,-9.626 62.578,-10.693C62.578,-11.781 63.021,-12.674 63.906,-13.374C64.792,-14.074 65.921,-14.424 67.295,-14.424C68.74,-14.424 69.902,-14.028 70.781,-13.237C71.66,-12.446 72.087,-11.442 72.061,-10.225L72.041,-10.166L70.947,-10.166C70.947,-11.104 70.607,-11.882 69.927,-12.5C69.246,-13.118 68.369,-13.428 67.295,-13.428C66.188,-13.428 65.321,-13.166 64.692,-12.642C64.064,-12.118 63.75,-11.475 63.75,-10.713C63.75,-9.99 64.035,-9.396 64.604,-8.931C65.174,-8.465 66.178,-8.031 67.617,-7.627C69.115,-7.191 70.257,-6.654 71.045,-6.016C71.833,-5.378 72.227,-4.531 72.227,-3.477C72.227,-2.37 71.766,-1.479 70.845,-0.806C69.924,-0.132 68.763,0.205 67.363,0.205C65.964,0.205 64.743,-0.151 63.701,-0.864C62.66,-1.577 62.155,-2.617 62.188,-3.984L62.207,-4.043L63.291,-4.043C63.291,-2.943 63.704,-2.124 64.531,-1.587C65.358,-1.05 66.302,-0.781 67.363,-0.781C68.451,-0.781 69.336,-1.03 70.02,-1.528C70.703,-2.026 71.045,-2.669 71.045,-3.457Z" style="fill:rgb(61,77,101);"/>
                    </g>
                    <g transform="matrix(0.883194,0,0,0.883194,57.2343,604.931)">
                        <path d="M82.646,-6.885L76.27,-6.885L76.27,-0.986L83.643,-0.986L83.643,0L75.098,0L75.098,-14.219L83.594,-14.219L83.594,-13.223L76.27,-13.223L76.27,-7.881L82.646,-7.881L82.646,-6.885Z" style="fill:rgb(61,77,101);"/>
                    </g>
                    <g transform="matrix(0.883194,0,0,0.883194,57.2343,604.931)">
                        <path d="M87.266,-6.426L87.266,0L86.094,0L86.094,-14.209L90.83,-14.209C92.354,-14.209 93.522,-13.875 94.336,-13.208C95.15,-12.541 95.557,-11.566 95.557,-10.283C95.557,-9.528 95.34,-8.853 94.907,-8.257C94.474,-7.661 93.861,-7.227 93.066,-6.953C93.945,-6.732 94.578,-6.336 94.966,-5.767C95.353,-5.197 95.547,-4.482 95.547,-3.623L95.547,-2.285C95.547,-1.842 95.599,-1.445 95.703,-1.094C95.807,-0.742 95.98,-0.456 96.221,-0.234L96.221,0L95.029,0C94.788,-0.234 94.619,-0.563 94.521,-0.986C94.424,-1.41 94.375,-1.849 94.375,-2.305L94.375,-3.604C94.375,-4.476 94.093,-5.164 93.53,-5.669C92.967,-6.174 92.181,-6.426 91.172,-6.426L87.266,-6.426ZM87.266,-7.422L90.693,-7.422C91.976,-7.422 92.913,-7.681 93.506,-8.198C94.098,-8.716 94.395,-9.414 94.395,-10.293C94.395,-11.23 94.1,-11.951 93.511,-12.456C92.922,-12.961 92.028,-13.213 90.83,-13.213L87.266,-13.213L87.266,-7.422Z" style="fill:rgb(61,77,101);"/>
                    </g>
                    <g transform="matrix(0.883194,0,0,0.883194,57.2343,604.931)">
                        <rect x="99.473" y="-14.219" width="1.172" height="14.219" style="fill:rgb(61,77,101);"/>
                    </g>
                    <g transform="matrix(0.883194,0,0,0.883194,57.2343,604.931)">
                        <path d="M112.129,-6.885L105.752,-6.885L105.752,-0.986L113.125,-0.986L113.125,0L104.58,0L104.58,-14.219L113.076,-14.219L113.076,-13.223L105.752,-13.223L105.752,-7.881L112.129,-7.881L112.129,-6.885Z" style="fill:rgb(61,77,101);"/>
                    </g>
                    <g transform="matrix(0.883194,0,0,0.883194,57.2343,604.931)">
                        <path d="M123.623,-3.457C123.623,-4.186 123.333,-4.788 122.754,-5.264C122.174,-5.739 121.191,-6.185 119.805,-6.602C118.288,-7.018 117.134,-7.537 116.343,-8.159C115.552,-8.781 115.156,-9.626 115.156,-10.693C115.156,-11.781 115.599,-12.674 116.484,-13.374C117.37,-14.074 118.499,-14.424 119.873,-14.424C121.318,-14.424 122.48,-14.028 123.359,-13.237C124.238,-12.446 124.665,-11.442 124.639,-10.225L124.619,-10.166L123.525,-10.166C123.525,-11.104 123.185,-11.882 122.505,-12.5C121.825,-13.118 120.947,-13.428 119.873,-13.428C118.766,-13.428 117.899,-13.166 117.271,-12.642C116.642,-12.118 116.328,-11.475 116.328,-10.713C116.328,-9.99 116.613,-9.396 117.183,-8.931C117.752,-8.465 118.757,-8.031 120.195,-7.627C121.693,-7.191 122.835,-6.654 123.623,-6.016C124.411,-5.378 124.805,-4.531 124.805,-3.477C124.805,-2.37 124.344,-1.479 123.423,-0.806C122.502,-0.132 121.341,0.205 119.941,0.205C118.542,0.205 117.321,-0.151 116.279,-0.864C115.238,-1.577 114.733,-2.617 114.766,-3.984L114.785,-4.043L115.869,-4.043C115.869,-2.943 116.283,-2.124 117.109,-1.587C117.936,-1.05 118.88,-0.781 119.941,-0.781C121.029,-0.781 121.914,-1.03 122.598,-1.528C123.281,-2.026 123.623,-2.669 123.623,-3.457Z" style="fill:rgb(61,77,101);"/>
                    </g>
                    <g transform="matrix(0.883194,0,0,0.883194,57.2343,604.931)">
                        <path d="M133.711,-5.908L133.711,0L132.539,0L132.539,-14.219L137.441,-14.219C138.932,-14.219 140.086,-13.838 140.903,-13.076C141.72,-12.314 142.129,-11.312 142.129,-10.068C142.129,-8.805 141.72,-7.796 140.903,-7.041C140.086,-6.286 138.932,-5.908 137.441,-5.908L133.711,-5.908ZM133.711,-6.904L137.441,-6.904C138.613,-6.904 139.492,-7.202 140.078,-7.798C140.664,-8.394 140.957,-9.144 140.957,-10.049C140.957,-10.96 140.664,-11.717 140.078,-12.319C139.492,-12.922 138.613,-13.223 137.441,-13.223L133.711,-13.223L133.711,-6.904Z" style="fill:rgb(61,77,101);"/>
                    </g>
                    <g transform="matrix(0.883194,0,0,0.883194,57.2343,604.931)">
                        <path d="M155.303,-5.947C155.303,-4.111 154.8,-2.627 153.794,-1.494C152.788,-0.361 151.439,0.205 149.746,0.205C148.079,0.205 146.75,-0.361 145.757,-1.494C144.764,-2.627 144.268,-4.111 144.268,-5.947L144.268,-8.262C144.268,-10.091 144.762,-11.576 145.752,-12.715C146.742,-13.854 148.07,-14.424 149.736,-14.424C151.429,-14.424 152.78,-13.854 153.789,-12.715C154.798,-11.576 155.303,-10.091 155.303,-8.262L155.303,-5.947ZM154.141,-8.281C154.141,-9.818 153.752,-11.055 152.974,-11.992C152.196,-12.93 151.117,-13.398 149.736,-13.398C148.382,-13.398 147.327,-12.93 146.572,-11.992C145.817,-11.055 145.439,-9.818 145.439,-8.281L145.439,-5.947C145.439,-4.398 145.819,-3.154 146.577,-2.217C147.336,-1.279 148.392,-0.811 149.746,-0.811C151.133,-0.811 152.212,-1.278 152.983,-2.212C153.755,-3.146 154.141,-4.391 154.141,-5.947L154.141,-8.281Z" style="fill:rgb(61,77,101);"/>
                    </g>
                    <g transform="matrix(0.883194,0,0,0.883194,57.2343,604.931)">
                        <path d="M159.473,-6.426L159.473,0L158.301,0L158.301,-14.209L163.037,-14.209C164.561,-14.209 165.729,-13.875 166.543,-13.208C167.357,-12.541 167.764,-11.566 167.764,-10.283C167.764,-9.528 167.547,-8.853 167.114,-8.257C166.681,-7.661 166.068,-7.227 165.273,-6.953C166.152,-6.732 166.785,-6.336 167.173,-5.767C167.56,-5.197 167.754,-4.482 167.754,-3.623L167.754,-2.285C167.754,-1.842 167.806,-1.445 167.91,-1.094C168.014,-0.742 168.187,-0.456 168.428,-0.234L168.428,0L167.236,0C166.995,-0.234 166.826,-0.563 166.729,-0.986C166.631,-1.41 166.582,-1.849 166.582,-2.305L166.582,-3.604C166.582,-4.476 166.3,-5.164 165.737,-5.669C165.174,-6.174 164.388,-6.426 163.379,-6.426L159.473,-6.426ZM159.473,-7.422L162.9,-7.422C164.183,-7.422 165.12,-7.681 165.713,-8.198C166.305,-8.716 166.602,-9.414 166.602,-10.293C166.602,-11.23 166.307,-11.951 165.718,-12.456C165.129,-12.961 164.235,-13.213 163.037,-13.213L159.473,-13.213L159.473,-7.422Z" style="fill:rgb(61,77,101);"/>
                    </g>
                    <g transform="matrix(0.883194,0,0,0.883194,57.2343,604.931)">
                        <path d="M180.264,-13.223L175.42,-13.223L175.42,0L174.258,0L174.258,-13.223L169.248,-13.223L169.248,-14.219L180.264,-14.219L180.264,-13.223Z" style="fill:rgb(61,77,101);"/>
                    </g>
                    <g transform="matrix(0.883194,0,0,0.883194,57.2343,604.931)">
                        <path d="M190.098,-6.885L183.721,-6.885L183.721,-0.986L191.094,-0.986L191.094,0L182.549,0L182.549,-14.219L191.045,-14.219L191.045,-13.223L183.721,-13.223L183.721,-7.881L190.098,-7.881L190.098,-6.885Z" style="fill:rgb(61,77,101);"/>
                    </g>
                    <g transform="matrix(0.883194,0,0,0.883194,57.2343,604.931)">
                        <path d="M201.592,-3.457C201.592,-4.186 201.302,-4.788 200.723,-5.264C200.143,-5.739 199.16,-6.185 197.773,-6.602C196.257,-7.018 195.103,-7.537 194.312,-8.159C193.521,-8.781 193.125,-9.626 193.125,-10.693C193.125,-11.781 193.568,-12.674 194.453,-13.374C195.339,-14.074 196.468,-14.424 197.842,-14.424C199.287,-14.424 200.449,-14.028 201.328,-13.237C202.207,-12.446 202.633,-11.442 202.607,-10.225L202.588,-10.166L201.494,-10.166C201.494,-11.104 201.154,-11.882 200.474,-12.5C199.793,-13.118 198.916,-13.428 197.842,-13.428C196.735,-13.428 195.868,-13.166 195.239,-12.642C194.611,-12.118 194.297,-11.475 194.297,-10.713C194.297,-9.99 194.582,-9.396 195.151,-8.931C195.721,-8.465 196.725,-8.031 198.164,-7.627C199.661,-7.191 200.804,-6.654 201.592,-6.016C202.38,-5.378 202.773,-4.531 202.773,-3.477C202.773,-2.37 202.313,-1.479 201.392,-0.806C200.47,-0.132 199.31,0.205 197.91,0.205C196.51,0.205 195.29,-0.151 194.248,-0.864C193.206,-1.577 192.702,-2.617 192.734,-3.984L192.754,-4.043L193.838,-4.043C193.838,-2.943 194.251,-2.124 195.078,-1.587C195.905,-1.05 196.849,-0.781 197.91,-0.781C198.997,-0.781 199.883,-1.03 200.566,-1.528C201.25,-2.026 201.592,-2.669 201.592,-3.457Z" style="fill:rgb(61,77,101);"/>
                    </g>
                    <g transform="matrix(0.883194,0,0,0.883194,57.2343,604.931)">
                        <path d="M211.68,-5.908L211.68,0L210.508,0L210.508,-14.219L215.41,-14.219C216.901,-14.219 218.055,-13.838 218.872,-13.076C219.689,-12.314 220.098,-11.312 220.098,-10.068C220.098,-8.805 219.689,-7.796 218.872,-7.041C218.055,-6.286 216.901,-5.908 215.41,-5.908L211.68,-5.908ZM211.68,-6.904L215.41,-6.904C216.582,-6.904 217.461,-7.202 218.047,-7.798C218.633,-8.394 218.926,-9.144 218.926,-10.049C218.926,-10.96 218.633,-11.717 218.047,-12.319C217.461,-12.922 216.582,-13.223 215.41,-13.223L211.68,-13.223L211.68,-6.904Z" style="fill:rgb(61,77,101);"/>
                    </g>
                    <g transform="matrix(0.883194,0,0,0.883194,57.2343,604.931)">
                        <path d="M230.391,-6.885L224.014,-6.885L224.014,-0.986L231.387,-0.986L231.387,0L222.842,0L222.842,-14.219L231.338,-14.219L231.338,-13.223L224.014,-13.223L224.014,-7.881L230.391,-7.881L230.391,-6.885Z" style="fill:rgb(61,77,101);"/>
                    </g>
                    <g transform="matrix(0.883194,0,0,0.883194,57.2343,604.931)">
                        <path d="M235.01,-6.426L235.01,0L233.838,0L233.838,-14.209L238.574,-14.209C240.098,-14.209 241.266,-13.875 242.08,-13.208C242.894,-12.541 243.301,-11.566 243.301,-10.283C243.301,-9.528 243.084,-8.853 242.651,-8.257C242.218,-7.661 241.605,-7.227 240.811,-6.953C241.689,-6.732 242.323,-6.336 242.71,-5.767C243.097,-5.197 243.291,-4.482 243.291,-3.623L243.291,-2.285C243.291,-1.842 243.343,-1.445 243.447,-1.094C243.551,-0.742 243.724,-0.456 243.965,-0.234L243.965,0L242.773,0C242.533,-0.234 242.363,-0.563 242.266,-0.986C242.168,-1.41 242.119,-1.849 242.119,-2.305L242.119,-3.604C242.119,-4.476 241.838,-5.164 241.274,-5.669C240.711,-6.174 239.925,-6.426 238.916,-6.426L235.01,-6.426ZM235.01,-7.422L238.438,-7.422C239.72,-7.422 240.658,-7.681 241.25,-8.198C241.842,-8.716 242.139,-9.414 242.139,-10.293C242.139,-11.23 241.844,-11.951 241.255,-12.456C240.666,-12.961 239.772,-13.213 238.574,-13.213L235.01,-13.213L235.01,-7.422Z" style="fill:rgb(61,77,101);"/>
                    </g>
                    <g transform="matrix(0.883194,0,0,0.883194,57.2343,604.931)">
                        <path d="M257.021,-1.914C256.709,-1.4 256.131,-0.918 255.288,-0.469C254.445,-0.02 253.382,0.205 252.1,0.205C250.465,0.205 249.128,-0.358 248.086,-1.484C247.044,-2.611 246.523,-4.069 246.523,-5.859L246.523,-8.467C246.523,-10.225 247.028,-11.657 248.037,-12.764C249.046,-13.87 250.352,-14.424 251.953,-14.424C253.496,-14.424 254.722,-14.017 255.63,-13.203C256.538,-12.389 256.979,-11.354 256.953,-10.098L256.924,-10.039L255.85,-10.039C255.85,-11.022 255.511,-11.833 254.834,-12.471C254.157,-13.109 253.197,-13.428 251.953,-13.428C250.677,-13.428 249.648,-12.965 248.867,-12.041C248.086,-11.117 247.695,-9.932 247.695,-8.486L247.695,-5.859C247.695,-4.375 248.102,-3.158 248.916,-2.207C249.73,-1.257 250.791,-0.781 252.1,-0.781C253.096,-0.781 253.91,-0.931 254.541,-1.23C255.173,-1.53 255.612,-1.878 255.859,-2.275L255.859,-5.918L252.031,-5.918L252.031,-6.914L257.021,-6.914L257.021,-1.914Z" style="fill:rgb(61,77,101);"/>
                    </g>
                    <g transform="matrix(0.883194,0,0,0.883194,57.2343,604.931)">
                        <path d="M271.113,-5.947C271.113,-4.111 270.61,-2.627 269.604,-1.494C268.599,-0.361 267.249,0.205 265.557,0.205C263.89,0.205 262.56,-0.361 261.567,-1.494C260.575,-2.627 260.078,-4.111 260.078,-5.947L260.078,-8.262C260.078,-10.091 260.573,-11.576 261.563,-12.715C262.552,-13.854 263.88,-14.424 265.547,-14.424C267.24,-14.424 268.59,-13.854 269.6,-12.715C270.609,-11.576 271.113,-10.091 271.113,-8.262L271.113,-5.947ZM269.951,-8.281C269.951,-9.818 269.562,-11.055 268.784,-11.992C268.006,-12.93 266.927,-13.398 265.547,-13.398C264.193,-13.398 263.138,-12.93 262.383,-11.992C261.628,-11.055 261.25,-9.818 261.25,-8.281L261.25,-5.947C261.25,-4.398 261.629,-3.154 262.388,-2.217C263.146,-1.279 264.202,-0.811 265.557,-0.811C266.943,-0.811 268.022,-1.278 268.794,-2.212C269.565,-3.146 269.951,-4.391 269.951,-5.947L269.951,-8.281Z" style="fill:rgb(61,77,101);"/>
                    </g>
                    <g transform="matrix(0.883194,0,0,0.883194,57.2343,604.931)">
                        <path d="M275.313,-0.986L282.656,-0.986L282.656,0L274.141,0L274.141,-14.219L275.313,-14.219L275.313,-0.986Z" style="fill:rgb(61,77,101);"/>
                    </g>
                    <g transform="matrix(0.883194,0,0,0.883194,57.2343,604.931)">
                        <path d="M292.783,-3.965L286.543,-3.965L285.107,0L283.896,0L289.121,-14.219L290.225,-14.219L295.41,0L294.199,0L292.783,-3.965ZM286.914,-5.01L292.402,-5.01L289.707,-12.549L289.648,-12.549L286.914,-5.01Z" style="fill:rgb(61,77,101);"/>
                    </g>
                    <g transform="matrix(0.883194,0,0,0.883194,57.2343,604.931)">
                        <path d="M305.625,-3.457C305.625,-4.186 305.335,-4.788 304.756,-5.264C304.176,-5.739 303.193,-6.185 301.807,-6.602C300.29,-7.018 299.136,-7.537 298.345,-8.159C297.554,-8.781 297.158,-9.626 297.158,-10.693C297.158,-11.781 297.601,-12.674 298.486,-13.374C299.372,-14.074 300.501,-14.424 301.875,-14.424C303.32,-14.424 304.482,-14.028 305.361,-13.237C306.24,-12.446 306.667,-11.442 306.641,-10.225L306.621,-10.166L305.527,-10.166C305.527,-11.104 305.187,-11.882 304.507,-12.5C303.826,-13.118 302.949,-13.428 301.875,-13.428C300.768,-13.428 299.901,-13.166 299.272,-12.642C298.644,-12.118 298.33,-11.475 298.33,-10.713C298.33,-9.99 298.615,-9.396 299.185,-8.931C299.754,-8.465 300.758,-8.031 302.197,-7.627C303.695,-7.191 304.837,-6.654 305.625,-6.016C306.413,-5.378 306.807,-4.531 306.807,-3.477C306.807,-2.37 306.346,-1.479 305.425,-0.806C304.504,-0.132 303.343,0.205 301.943,0.205C300.544,0.205 299.323,-0.151 298.281,-0.864C297.24,-1.577 296.735,-2.617 296.768,-3.984L296.787,-4.043L297.871,-4.043C297.871,-2.943 298.285,-2.124 299.111,-1.587C299.938,-1.05 300.882,-0.781 301.943,-0.781C303.031,-0.781 303.916,-1.03 304.6,-1.528C305.283,-2.026 305.625,-2.669 305.625,-3.457Z" style="fill:rgb(61,77,101);"/>
                    </g>
                    <g transform="matrix(0.883194,0,0,0.883194,57.2343,604.931)">
                        <path d="M315.713,-5.908L315.713,0L314.541,0L314.541,-14.219L319.443,-14.219C320.934,-14.219 322.088,-13.838 322.905,-13.076C323.722,-12.314 324.131,-11.312 324.131,-10.068C324.131,-8.805 323.722,-7.796 322.905,-7.041C322.088,-6.286 320.934,-5.908 319.443,-5.908L315.713,-5.908ZM315.713,-6.904L319.443,-6.904C320.615,-6.904 321.494,-7.202 322.08,-7.798C322.666,-8.394 322.959,-9.144 322.959,-10.049C322.959,-10.96 322.666,-11.717 322.08,-12.319C321.494,-12.922 320.615,-13.223 319.443,-13.223L315.713,-13.223L315.713,-6.904Z" style="fill:rgb(61,77,101);"/>
                    </g>
                    <g transform="matrix(0.883194,0,0,0.883194,57.2343,604.931)">
                        <path d="M337.305,-5.947C337.305,-4.111 336.802,-2.627 335.796,-1.494C334.79,-0.361 333.441,0.205 331.748,0.205C330.081,0.205 328.752,-0.361 327.759,-1.494C326.766,-2.627 326.27,-4.111 326.27,-5.947L326.27,-8.262C326.27,-10.091 326.764,-11.576 327.754,-12.715C328.743,-13.854 330.072,-14.424 331.738,-14.424C333.431,-14.424 334.782,-13.854 335.791,-12.715C336.8,-11.576 337.305,-10.091 337.305,-8.262L337.305,-5.947ZM336.143,-8.281C336.143,-9.818 335.754,-11.055 334.976,-11.992C334.198,-12.93 333.118,-13.398 331.738,-13.398C330.384,-13.398 329.329,-12.93 328.574,-11.992C327.819,-11.055 327.441,-9.818 327.441,-8.281L327.441,-5.947C327.441,-4.398 327.821,-3.154 328.579,-2.217C329.338,-1.279 330.394,-0.811 331.748,-0.811C333.135,-0.811 334.214,-1.278 334.985,-2.212C335.757,-3.146 336.143,-4.391 336.143,-5.947L336.143,-8.281Z" style="fill:rgb(61,77,101);"/>
                    </g>
                    <g transform="matrix(0.883194,0,0,0.883194,57.2343,604.931)">
                        <path d="M341.475,-6.426L341.475,0L340.303,0L340.303,-14.209L345.039,-14.209C346.563,-14.209 347.731,-13.875 348.545,-13.208C349.359,-12.541 349.766,-11.566 349.766,-10.283C349.766,-9.528 349.549,-8.853 349.116,-8.257C348.683,-7.661 348.07,-7.227 347.275,-6.953C348.154,-6.732 348.787,-6.336 349.175,-5.767C349.562,-5.197 349.756,-4.482 349.756,-3.623L349.756,-2.285C349.756,-1.842 349.808,-1.445 349.912,-1.094C350.016,-0.742 350.189,-0.456 350.43,-0.234L350.43,0L349.238,0C348.997,-0.234 348.828,-0.563 348.73,-0.986C348.633,-1.41 348.584,-1.849 348.584,-2.305L348.584,-3.604C348.584,-4.476 348.302,-5.164 347.739,-5.669C347.176,-6.174 346.39,-6.426 345.381,-6.426L341.475,-6.426ZM341.475,-7.422L344.902,-7.422C346.185,-7.422 347.122,-7.681 347.715,-8.198C348.307,-8.716 348.604,-9.414 348.604,-10.293C348.604,-11.23 348.309,-11.951 347.72,-12.456C347.131,-12.961 346.237,-13.213 345.039,-13.213L341.475,-13.213L341.475,-7.422Z" style="fill:rgb(61,77,101);"/>
                    </g>
                    <g transform="matrix(0.883194,0,0,0.883194,57.2343,604.931)">
                        <path d="M362.266,-13.223L357.422,-13.223L357.422,0L356.26,0L356.26,-13.223L351.25,-13.223L351.25,-14.219L362.266,-14.219L362.266,-13.223Z" style="fill:rgb(61,77,101);"/>
                    </g>
                    <g transform="matrix(0.883194,0,0,0.883194,57.2343,604.931)">
                        <path d="M371.221,-3.965L364.98,-3.965L363.545,0L362.334,0L367.559,-14.219L368.662,-14.219L373.848,0L372.637,0L371.221,-3.965ZM365.352,-5.01L370.84,-5.01L368.145,-12.549L368.086,-12.549L365.352,-5.01Z" style="fill:rgb(61,77,101);"/>
                    </g>
                    <g transform="matrix(0.883194,0,0,0.883194,57.2343,604.931)">
                        <rect x="376.348" y="-14.219" width="1.172" height="14.219" style="fill:rgb(61,77,101);"/>
                    </g>
                    <g transform="matrix(0.883194,0,0,0.883194,57.2343,604.931)">
                        <path d="M382.627,-0.986L389.971,-0.986L389.971,0L381.455,0L381.455,-14.219L382.627,-14.219L382.627,-0.986Z" style="fill:rgb(61,77,101);"/>
                    </g>
                    <g transform="matrix(0.883194,0,0,0.883194,57.2343,604.931)">
                        <path d="M400.488,-3.457C400.488,-4.186 400.199,-4.788 399.619,-5.264C399.04,-5.739 398.057,-6.185 396.67,-6.602C395.153,-7.018 393.999,-7.537 393.208,-8.159C392.417,-8.781 392.021,-9.626 392.021,-10.693C392.021,-11.781 392.464,-12.674 393.35,-13.374C394.235,-14.074 395.365,-14.424 396.738,-14.424C398.184,-14.424 399.346,-14.028 400.225,-13.237C401.104,-12.446 401.53,-11.442 401.504,-10.225L401.484,-10.166L400.391,-10.166C400.391,-11.104 400.05,-11.882 399.37,-12.5C398.69,-13.118 397.813,-13.428 396.738,-13.428C395.632,-13.428 394.764,-13.166 394.136,-12.642C393.507,-12.118 393.193,-11.475 393.193,-10.713C393.193,-9.99 393.478,-9.396 394.048,-8.931C394.618,-8.465 395.622,-8.031 397.061,-7.627C398.558,-7.191 399.701,-6.654 400.488,-6.016C401.276,-5.378 401.67,-4.531 401.67,-3.477C401.67,-2.37 401.209,-1.479 400.288,-0.806C399.367,-0.132 398.206,0.205 396.807,0.205C395.407,0.205 394.186,-0.151 393.145,-0.864C392.103,-1.577 391.598,-2.617 391.631,-3.984L391.65,-4.043L392.734,-4.043C392.734,-2.943 393.148,-2.124 393.975,-1.587C394.801,-1.05 395.745,-0.781 396.807,-0.781C397.894,-0.781 398.779,-1.03 399.463,-1.528C400.146,-2.026 400.488,-2.669 400.488,-3.457Z" style="fill:rgb(61,77,101);"/>
                    </g>
                </g>
            </g>
            <g id="Calque-1" serif:id="Calque 1">
            </g>
            <g id="Calque-11" serif:id="Calque 1">
            </g>
            <g id="Calque-12" serif:id="Calque 1">
            </g>
        </g>
    </g>
</svg>
